<svg xmlns="http://www.w3.org/2000/svg" fill="#fff" version="1.0" width="25px" height="25px" viewBox="0 0 512.000000 512.000000" preserveAspectRatio="xMidYMid meet">

<g transform="translate(0.000000,512.000000) scale(0.100000,-0.100000)" stroke="none">
<path d="M2252 4649 c-452 -21 -906 -98 -1252 -210 -339 -111 -573 -241 -746 -413 -100 -101 -154 -177 -195 -275 -55 -132 -59 -178 -59 -670 0 -293 4 -469 11 -503 28 -134 121 -253 243 -313 104 -52 176 -57 659 -53 400 4 414 5 476 28 130 47 239 159 283 290 19 60 22 91 26 375 l4 309 32 31 c34 35 117 64 342 121 183 46 319 64 484 64 165 0 301 -18 484 -64 232 -59 308 -86 342 -120 l32 -32 4 -309 c4 -285 7 -315 27 -377 42 -129 152 -240 286 -289 57 -22 78 -23 472 -27 483 -4 555 1 659 53 122 60 215 179 243 313 7 34 11 210 11 503 0 492 -4 538 -59 670 -84 200 -294 400 -566 536 -533 269 -1370 404 -2243 362z"/>

</g>
</svg>