<svg xmlns="http://www.w3.org/2000/svg" width="150" height="50" viewBox="0,0,150,50"><path fill="#333" d="M79.15 41.07L79.21 41.13L79.15 41.06Q82.30 36.80 89.01 28.88L89.11 28.99L89.03 28.90Q83.12 29.13 79.35 27.76L79.47 27.87L79.43 27.83Q78.64 26.28 77.88 24.87L77.92 24.91L77.98 24.97Q82.02 26.42 86.47 26.46L86.50 26.49L86.43 26.42Q91.02 26.59 95.21 25.53L95.06 25.38L95.04 25.36Q94.72 26.10 94.45 26.64L94.37 26.55L94.42 26.60Q91.84 28.79 89.03 32.40L89.13 32.50L84.20 38.69L84.28 38.77Q86.37 38.42 88.61 38.50L88.79 38.68L88.67 38.55Q90.86 38.61 93.11 38.99L93.17 39.05L93.02 38.91Q93.18 39.52 93.90 41.54L94.08 41.72L94.06 41.70Q90.30 40.84 86.31 40.95L86.31 40.96L86.21 40.85Q82.30 41.02 78.64 42.20L78.70 42.25L78.58 42.13Q78.78 42.11 79.24 41.16ZM78.04 42.78L78.14 42.87L78.15 42.88Q78.93 42.56 80.53 42.14L80.40 42.01L80.49 42.10Q80.15 42.22 79.73 42.64L79.81 42.71L79.82 42.72Q79.49 43.19 78.88 44.33L78.90 44.36L79.00 44.45Q83.68 43.08 88.67 43.23L88.58 43.15L88.68 43.25Q93.65 43.43 98.22 45.29L98.09 45.16L98.28 45.35Q96.79 43.44 95.88 41.38L95.84 41.35L95.88 41.39Q95.03 40.99 93.96 40.76L93.99 40.79L94.08 40.88Q93.82 40.09 93.44 38.65L93.46 38.66L93.34 38.55Q91.95 38.37 88.37 38.26L88.37 38.26L88.33 38.22Q90.60 34.77 95.62 28.42L95.66 28.45L95.62 28.41Q96.00 27.80 96.68 26.47L96.61 26.40L94.41 27.24L94.45 27.28Q94.44 27.12 94.60 27.01L94.55 26.96L94.88 26.91L94.84 26.87Q95.26 25.77 95.83 24.82L95.73 24.71L95.74 24.73Q91.26 26.26 86.54 26.19L86.40 26.05L86.36 26.01Q81.67 26.04 77.18 24.21L77.26 24.29L77.18 24.21Q78.26 25.97 79.06 28.03L79.17 28.14L79.24 28.21Q80.08 28.52 81.14 28.78L81.04 28.68L81.09 28.73Q81.23 29.36 81.53 30.81L81.59 30.87L81.51 30.79Q83.06 31.01 86.38 31.16L86.44 31.23L86.51 31.29Q84.05 34.55 78.87 40.98L78.82 40.93L78.83 40.94Q78.56 41.50 77.98 42.72Z"/><path fill="#333" d="M25.79 28.54L25.89 28.63L25.88 28.63Q23.10 28.67 22.34 30.91L22.27 30.84L22.25 30.82Q22.12 31.64 22.01 32.29L21.98 32.27L21.88 32.17Q24.60 32.49 26.24 32.49L26.19 32.44L26.12 32.37Q27.78 32.40 30.37 32.28L30.35 32.26L30.49 32.40Q30.28 30.59 28.87 29.52L28.98 29.63L28.96 29.61Q27.68 28.64 25.89 28.64ZM25.92 41.16L25.91 41.14L25.93 41.17Q21.72 41.18 20.42 39.77L20.36 39.70L20.44 39.78Q19.43 38.28 19.28 35.00L19.23 34.96L19.41 35.14Q19.28 34.78 19.20 33.41L19.31 33.51L19.15 33.36Q19.19 31.22 19.19 30.50L19.00 30.32L19.07 30.39Q19.17 28.61 19.89 27.51L19.80 27.42L19.89 27.51Q21.30 26.11 24.27 26.11L24.20 26.04L25.78 26.05L25.74 26.01Q27.78 25.99 29.30 26.30L29.27 26.27L29.37 26.37Q31.29 26.69 32.28 27.91L32.36 27.98L32.31 27.94Q32.97 29.06 33.05 31.15L33.12 31.22L33.04 31.14Q33.09 32.33 33.12 34.50L33.20 34.58L33.19 34.57Q30.16 34.43 27.38 34.43L27.38 34.43L21.95 34.60L21.85 34.50Q22.10 39.01 26.17 38.78L26.05 38.66L26.17 38.78Q29.89 38.53 31.10 36.71L31.07 36.67L31.18 36.78Q31.92 37.18 33.52 38.36L33.63 38.47L33.65 38.49Q32.24 40.85 28.09 41.12L28.10 41.12L28.05 41.07Q27.41 41.20 26.04 41.28ZM28.27 43.54L28.18 43.45L28.24 43.51Q29.35 43.48 30.57 43.56L30.59 43.58L30.47 43.46Q35.58 43.78 36.50 41.00L36.43 40.93L36.54 41.03Q34.85 39.73 33.75 38.97L33.75 38.97L33.68 38.90Q33.86 38.51 34.05 38.29L34.16 38.39L34.00 38.23Q33.35 37.85 31.98 36.90L32.06 36.98L31.98 36.89Q32.97 36.86 35.02 37.16L35.08 37.21L35.03 37.17Q34.93 35.88 34.85 35.20L34.93 35.28L34.73 33.29L34.78 33.34Q34.68 31.03 34.03 29.54L34.03 29.54L34.01 29.52Q33.72 29.16 33.15 28.55L33.17 28.57L33.15 28.55Q33.00 28.25 32.77 27.68L32.64 27.54L32.64 27.55Q30.83 25.59 25.77 25.59L25.76 25.58L24.16 25.65L24.13 25.62Q20.88 25.60 19.43 27.09L19.32 26.98L19.44 27.10Q18.66 28.11 18.70 30.17L18.84 30.30L18.84 30.31Q18.87 31.25 18.99 33.50L18.96 33.47L18.95 33.46Q18.94 34.97 19.05 37.03L19.16 37.14L19.12 37.09Q19.49 39.45 20.37 40.51L20.31 40.46L20.22 40.36Q20.52 40.66 20.71 40.78L20.66 40.73L21.00 41.41L20.87 41.28Q21.67 43.15 28.26 43.53ZM26.22 38.41L26.20 38.39L26.16 38.35Q24.89 38.34 23.98 37.88L24.07 37.97L23.95 37.85Q24.08 37.64 23.89 36.96L23.81 36.88L23.80 36.87Q25.57 36.84 27.17 36.84L27.19 36.86L27.09 36.76Q28.74 36.75 30.42 36.86L30.38 36.82L30.37 36.81Q29.18 38.25 26.17 38.36ZM27.85 31.06L27.77 30.98L27.82 31.02Q28.38 30.97 29.71 31.35L29.72 31.36L29.94 31.78L29.93 31.95L29.88 31.90Q28.66 32.17 27.75 32.13L27.63 32.01L27.57 31.95Q25.47 32.10 25.43 32.10L25.28 31.95L25.38 32.05Q26.15 31.15 27.83 31.03Z"/><path d="M11 46 C54 27,69 36,136 26" stroke="#444" fill="none"/><path d="M13 19 C86 19,66 45,147 45" stroke="#555" fill="none"/><path fill="#111" d="M112.37 33.32L112.39 33.34L112.34 33.30Q112.15 36.07 110.97 40.72L111.08 40.83L110.96 40.70Q109.28 41.35 107.68 42.15L107.61 42.08L107.54 42.01Q110.27 35.10 110.00 27.68L109.96 27.64L109.97 27.65Q109.71 20.27 106.62 13.53L106.61 13.51L106.64 13.54Q108.61 14.83 110.47 15.40L110.48 15.41L110.36 15.28Q112.62 22.38 112.62 29.04L112.49 28.91L112.52 28.95Q112.52 30.39 112.45 31.88L112.59 32.02L112.48 31.91Q113.60 30.67 118.81 25.72L118.76 25.66L118.94 25.84Q120.06 25.86 121.05 25.78L120.94 25.67L123.08 25.57L122.95 25.44Q119.93 28.59 115.63 32.35L115.57 32.29L115.48 32.21Q118.89 35.01 125.37 40.84L125.40 40.87L125.44 40.91Q122.71 40.01 119.74 39.82L119.82 39.89L119.71 39.79Q117.21 37.71 112.34 33.29ZM122.16 42.39L122.24 42.47L122.30 42.53Q126.90 43.25 130.02 45.19L130.04 45.21L130.05 45.22Q128.88 43.93 126.25 41.53L126.29 41.56L126.26 41.54Q126.48 41.60 126.74 41.72L126.87 41.84L126.79 41.77Q124.75 39.80 122.50 37.89L122.46 37.86L118.11 34.04L118.08 34.01Q122.95 29.70 125.39 26.81L125.34 26.77L125.44 26.86Q124.17 26.89 121.70 27.16L121.80 27.26L121.72 27.18Q123.31 25.72 124.00 24.89L123.97 24.86L123.97 24.86Q121.27 25.43 118.80 25.43L118.83 25.46L118.72 25.36Q117.31 26.65 114.57 29.32L114.58 29.32L114.64 29.38Q114.53 23.49 113.54 17.66L113.66 17.79L113.68 17.81Q112.86 17.52 111.37 17.25L111.37 17.25L111.47 17.35Q111.19 16.50 110.74 15.01L110.86 15.14L110.88 15.15Q108.14 14.24 105.89 12.68L105.94 12.74L105.83 12.62Q109.41 19.59 109.75 27.70L109.60 27.54L109.63 27.57Q109.98 35.50 106.97 42.73L107.08 42.85L106.97 42.73Q107.67 42.44 109.00 41.79L109.09 41.89L109.02 41.81Q108.73 42.59 108.08 44.04L108.16 44.11L108.16 44.12Q111.06 43.09 113.19 42.71L113.14 42.66L113.02 42.54Q113.69 40.13 114.19 35.86L114.26 35.93L114.17 35.85Q116.72 38.05 122.16 42.39Z"/><path fill="#333" d="M62.11 41.00L62.02 40.92L61.97 40.86Q60.81 39.32 59.51 36.24L59.39 36.12L57.42 31.14L57.40 31.12Q55.80 35.11 55.19 36.41L55.10 36.32L55.08 36.30Q53.64 39.24 52.04 41.14L51.98 41.08L51.98 41.08Q51.66 41.14 50.90 41.25L50.93 41.28L50.96 41.32Q51.00 33.93 45.18 27.99L45.21 28.03L45.13 27.95Q43.31 26.06 41.30 24.57L41.29 24.56L41.30 24.58Q43.13 25.11 45.00 25.42L45.13 25.55L45.08 25.50Q51.22 30.54 52.67 36.78L52.64 36.75L52.64 36.75Q53.41 34.79 54.60 31.59L54.75 31.74L54.74 31.74Q56.04 27.93 56.61 26.64L56.61 26.64L58.08 26.69L58.08 26.70Q58.77 28.23 59.95 31.50L60.09 31.64L60.08 31.63Q61.37 35.24 62.02 36.65L61.94 36.57L61.93 36.56Q63.83 30.35 69.31 25.78L69.27 25.75L69.35 25.83Q70.45 25.63 73.19 25.06L73.26 25.12L73.18 25.05Q64.64 31.16 63.46 41.14L63.44 41.12L62.72 40.93L62.67 40.88Q62.35 40.87 62.01 40.90ZM65.00 43.36L67.17 43.66L67.15 43.64Q66.72 42.00 66.72 40.48L66.84 40.59L66.75 40.50Q66.80 37.32 68.21 34.09L68.14 34.02L68.19 34.07Q70.23 29.59 74.34 26.51L74.20 26.37L74.27 26.44Q73.10 26.75 71.23 27.10L71.10 26.96L71.23 27.10Q73.25 25.49 74.54 24.58L74.44 24.48L71.91 24.92L72.00 25.01Q70.74 25.20 69.41 25.35L69.34 25.28L69.45 25.39Q64.29 29.63 62.35 34.66L62.18 34.49L62.19 34.50Q61.66 32.45 60.29 28.19L60.24 28.13L60.34 28.23Q59.89 28.13 59.62 28.13L59.79 28.29L59.08 28.12L59.21 28.24Q58.98 27.83 58.18 26.08L58.20 26.10L56.22 26.17L56.28 26.23Q55.33 29.05 53.24 34.68L53.18 34.62L53.18 34.62Q51.76 30.85 48.68 27.58L48.67 27.56L48.77 27.66Q48.55 27.72 48.25 27.68L48.20 27.63L47.54 27.43L47.52 27.40Q46.79 26.71 45.00 25.11L44.91 25.03L45.06 25.17Q41.88 24.50 40.20 24.01L40.15 23.96L40.10 23.91Q50.95 31.49 50.57 41.80L50.54 41.77L50.52 41.75Q50.72 41.76 51.08 41.73L51.11 41.75L51.01 41.65Q51.45 41.69 51.64 41.69L51.67 41.72L51.62 41.67Q51.59 41.49 51.78 43.58L51.74 43.54L53.81 43.52L53.81 43.51Q56.29 40.59 58.54 34.85L58.46 34.77L58.54 34.84Q59.95 38.62 61.81 41.28L61.98 41.44L61.99 41.46Q62.15 41.27 62.42 41.29L62.48 41.35L62.56 41.44Q62.65 41.28 62.91 41.28L62.98 41.34L64.97 43.34Z"/></svg>